#!OML:ASF F:\VICON\USERDATA\INSTALL\rory3\rory3.ASF
:FULLY-SPECIFIED
:DEGREES
235
root 6.2463 17.6607 -2.6136 -9.22079 -48.3811 8.988
lowerback 10.0072 0.675122 -6.82699
upperback 1.66815 0.101547 -0.709172
thorax -3.88343 0.119127 3.0903
lowerneck -19.2383 -3.60255 -10.1312
upperneck 30.4136 -4.32063 6.74046
head 13.9601 -2.24388 3.67127
rclavicle 2.73577e-014 -3.12092e-014
rhumerus -36.195 -3.79229 -79.4445
rradius 35.0272
rwrist 2.78792
rhand -16.286 11.7796
rfingers 7.12502
rthumb 9.92422 -17.9664
lclavicle 2.73577e-014 -3.12092e-014
lhumerus -34.1041 -1.02568 79.2669
lradius 42.43
lwrist -1.75848
lhand -16.5761 24.2194
lfingers 7.12502
lthumb 9.64433 53.9786
rfemur -27.7135 -4.62732 15.1619
rtibia 54.3456
rfoot -12.0033 -2.36378
rtoes -3.20474
lfemur -3.69544 -0.176268 -30.4053
ltibia 23.6657
lfoot -13.032 -9.59813
ltoes 8.94307
236
root 6.13847 17.654 -2.52927 -9.23302 -48.3226 8.95505
lowerback 10.183 0.672353 -7.29363
upperback 1.56208 0.0438127 -0.39647
thorax -4.08663 0.109233 3.68873
lowerneck -19.1619 -3.60111 -10.3435
upperneck 30.4263 -4.21472 6.62548
head 13.9416 -2.24051 3.6801
rclavicle -8.96022e-014 -1.74931e-014
rhumerus -36.249 -3.4869 -79.0533
rradius 34.958
rwrist 2.65796
rhand -16.2346 11.7617
rfingers 7.12502
rthumb 9.97385 -17.982
lclavicle -8.96022e-014 -1.74931e-014
lhumerus -34.0947 -0.993654 79.6563
lradius 42.5706
lwrist -1.73883
lhand -16.9993 24.4768
lfingers 7.12502
lthumb 9.23605 54.2545
rfemur -28.1633 -4.29231 15.2775
rtibia 52.2704
rfoot -11.8669 -2.78786
rtoes -3.62539
lfemur -2.98352 -0.012836 -30.3202
ltibia 23.3288
lfoot -13.6879 -9.45074
ltoes 7.56848
237
root 6.02703 17.6473 -2.43619 -9.61711 -48.2055 9.35108
lowerback 9.94577 0.658277 -7.25854
upperback 1.75525 0.0384521 -0.758956
thorax -3.75117 0.0856197 3.28895
lowerneck -19.1726 -3.63208 -9.98402
upperneck 30.1951 -4.3942 6.70019
head 13.8535 -2.2597 3.60951
rclavicle -1.16115e-013 2.98177e-014
rhumerus -36.0372 -4.12435 -79.3126
rradius 34.8087
rwrist 2.79553
rhand -16.2873 11.7609
rfingers 7.12502
rthumb 9.92299 -17.9852
lclavicle -1.16115e-013 2.98177e-014
lhumerus -33.5686 -1.47625 79.2963
lradius 42.7616
lwrist -1.70083
lhand -16.7043 24.9572
lfingers 7.12502
lthumb 9.52066 54.7221
rfemur -28.4487 -4.01865 14.9805
rtibia 50.1259
rfoot -11.5228 -3.00658
rtoes -2.08428
lfemur -2.12551 0.152388 -30.585
ltibia 22.8881
lfoot -13.629 -10.3194
ltoes 10.1994
238
root 5.91283 17.6417 -2.33618 -10.0261 -48.0625 9.78321
lowerback 10.2139 0.714409 -8.10051
upperback 1.50812 0.00282029 -0.433393
thorax -4.15562 0.104132 4.10979
lowerneck -18.928 -3.67491 -10.3555
upperneck 30.3165 -4.31723 6.55176
head 13.8535 -2.29831 3.63054
rclavicle 1.94064e-014 1.19271e-015
rhumerus -36.5364 -3.582 -78.7398
rradius 34.875
rwrist 2.53528
rhand -16.4046 11.749
rfingers 7.12502
rthumb 9.80985 -18.0024
lclavicle 1.94064e-014 1.19271e-015
lhumerus -33.9063 -1.26809 79.8534
lradius 42.9583
lwrist -1.76627
lhand -16.4273 25.1356
lfingers 7.12502
lthumb 9.78788 54.8882
rfemur -28.6319 -3.84863 14.5904
rtibia 47.9268
rfoot -11.2586 -3.09507
rtoes 0.339963
lfemur -1.17927 0.151085 -30.9297
ltibia 22.3438
lfoot -14.2304 -9.73269
ltoes 8.1733
239
root 5.80093 17.6369 -2.24276 -10.0465 -47.9249 9.82826
lowerback 9.98895 0.73611 -8.22845
upperback 1.60269 0.0455718 -0.397705
thorax -3.93605 0.1157 4.21307
lowerneck -19.0205 -3.82304 -10.3968
upperneck 30.2093 -4.51074 6.58191
head 13.8516 -2.37739 3.61224
rclavicle 5.86415e-014 -1.51076e-014
rhumerus -36.4187 -4.03068 -78.4746
rradius 34.6827
rwrist 2.66785
rhand -16.2787 12.0296
rfingers 7.12502
rthumb 9.93127 -17.7161
lclavicle 5.86415e-014 -1.51076e-014
lhumerus -33.5444 -1.67836 80.057
lradius 43.0594
lwrist -1.67995
lhand -16.5356 24.8902
lfingers 7.12502
lthumb 9.68343 54.6476
rfemur -28.8933 -3.62831 14.5424
rtibia 45.6545
rfoot -11.0981 -3.46329
rtoes -0.669702
lfemur -0.319656 0.162249 -30.9705
ltibia 21.7245
lfoot -14.3728 -9.8208
ltoes 8.56881
240
root 5.69145 17.6305 -2.15071 -9.99405 -47.7746 9.86618
lowerback 9.78787 0.690719 -8.28863
upperback 1.6176 -0.00044878 -0.406367
thorax -3.80206 0.0880416 4.24328
lowerneck -19.0023 -3.8724 -10.3033
upperneck 30.1633 -4.5699 6.44949
head 13.8282 -2.40895 3.52999
rclavicle -5.19822e-014 1.07344e-014
rhumerus -36.3892 -4.36383 -78.3264
rradius 34.5401
rwrist 2.86226
rhand -16.0622 12.143
rfingers 7.12502
rthumb 10.1401 -17.5927
lclavicle -5.19822e-014 1.07344e-014
lhumerus -33.3222 -1.80697 80.0825
lradius 43.1558
lwrist -1.7994
lhand -16.8991 24.4874
lfingers 7.12502
lthumb 9.33275 54.2608
rfemur -29.177 -3.36588 14.4929
rtibia 43.2969
rfoot -10.7631 -3.84777
rtoes -0.78061
lfemur 0.427377 0.104121 -31.015
ltibia 21.1618
lfoot -14.3656 -10.1031
ltoes 9.10534
241
root 5.58052 17.6216 -2.05265 -10.0796 -47.6222 9.9857
lowerback 9.76437 0.563791 -8.35283
upperback 1.52304 -0.17849 -0.440144
thorax -3.86454 0.00637981 4.26685
lowerneck -18.8626 -3.80953 -10.3785
upperneck 30.2361 -4.50629 6.53597
head 13.8265 -2.38448 3.59207
rclavicle -3.12837e-014 2.62396e-014
rhumerus -36.6238 -4.03522 -78.4053
rradius 34.5424
rwrist 2.72856
rhand -16.0472 11.8499
rfingers 7.12502
rthumb 10.1546 -17.8851
lclavicle -3.12837e-014 2.62396e-014
lhumerus -33.4405 -1.66071 79.9819
lradius 43.2992
lwrist -2.08834
lhand -16.6448 24.6712
lfingers 7.12502
lthumb 9.57806 54.4334
rfemur -29.3314 -3.3009 14.3628
rtibia 40.8849
rfoot -10.3032 -3.99984
rtoes 0.680832
lfemur 1.26645 0.0563769 -31.1418
ltibia 20.6372
lfoot -14.4019 -10.1688
ltoes 9.3537
242
root 5.46708 17.6104 -1.95468 -10.0498 -47.3469 9.94568
lowerback 9.40222 0.412225 -7.92618
upperback 1.73409 -0.304374 -0.730631
thorax -3.42837 -0.0869163 3.73472
lowerneck -18.9453 -3.85094 -10.3511
upperneck 30.0217 -4.67601 6.90675
head 13.779 -2.39795 3.70251
rclavicle 2.8625e-014 5.56597e-015
rhumerus -36.4149 -4.31893 -78.783
rradius 34.4374
rwrist 2.66645
rhand -16.303 11.6671
rfingers 7.12502
rthumb 9.90785 -18.0797
lclavicle 2.8625e-014 5.56597e-015
lhumerus -32.984 -2.10298 79.6644
lradius 43.4295
lwrist -2.25656
lhand -15.9713 24.9867
lfingers 7.12502
lthumb 10.2279 54.718
rfemur -29.4271 -3.30082 14.3433
rtibia 38.4942
rfoot -9.86335 -4.41831
rtoes -0.49152
lfemur 2.17418 0.266465 -31.0909
ltibia 19.9664
lfoot -14.6411 -10.4495
ltoes 8.59301
243
root 5.35274 17.6009 -1.85562 -10.1039 -46.9078 10.0082
lowerback 9.26624 0.236699 -7.94581
upperback 1.78269 -0.525613 -0.778175
thorax -3.27475 -0.20385 3.72101
lowerneck -18.877 -3.82452 -10.4121
upperneck 29.8753 -4.65114 7.01941
head 13.7031 -2.37712 3.75934
rclavicle -3.61043e-014 7.95139e-016
rhumerus -36.3916 -4.34204 -78.8331
rradius 34.2967
rwrist 2.68378
rhand -16.2739 11.6093
rfingers 7.12502
rthumb 9.93596 -18.1363
lclavicle -3.61043e-014 7.95139e-016
lhumerus -32.8576 -2.19643 79.6677
lradius 43.5452
lwrist -2.50754
lhand -15.8744 24.6059
lfingers 7.12502
lthumb 10.3213 54.3326
rfemur -29.4662 -3.38973 14.1676
rtibia 36.1747
rfoot -9.66585 -4.86855
rtoes -1.72131
lfemur 3.16798 0.428878 -31.1162
ltibia 19.1656
lfoot -14.8629 -10.8081
ltoes 7.47028
244
root 5.23535 17.5947 -1.7543 -10.379 -46.6556 10.3979
lowerback 9.20658 0.173058 -8.54502
upperback 1.71533 -0.658247 -0.609465
thorax -3.28595 -0.2602 4.24968
lowerneck -18.8728 -3.80505 -10.61
upperneck 29.9387 -4.51361 6.88547
head 13.7173 -2.35965 3.7651
rclavicle 5.91384e-015 1.03368e-014
rhumerus -36.4721 -4.06138 -78.5359
rradius 34.1295
rwrist 2.69108
rhand -16.4575 11.1794
rfingers 7.12502
rthumb 9.75874 -18.5745
lclavicle 5.91384e-015 1.03368e-014
lhumerus -32.9368 -2.11579 80.037
lradius 43.6679
lwrist -2.60364
lhand -15.8768 24.6184
lfingers 7.12502
lthumb 10.319 54.3453
rfemur -29.522 -3.23669 13.6965
rtibia 33.9303
rfoot -9.70149 -4.96295
rtoes -1.22187
lfemur 4.17706 0.435388 -31.4165
ltibia 18.318
lfoot -14.9756 -10.9393
ltoes 7.42332
